<svg width="1600" height="1200" viewBox="0 0 1600 1200" fill="none" xmlns="http://www.w3.org/2000/svg">
  <rect width="1600" height="1200" fill="#EEE5D8"/>
  <rect width="1600" height="1200" fill="url(#bg)"/>
  <g opacity="0.5">
    <circle cx="1258" cy="152" r="282" fill="url(#haloOne)"/>
    <circle cx="318" cy="1050" r="330" fill="url(#haloTwo)"/>
  </g>

  <rect x="332" y="112" width="936" height="984" rx="44" fill="#FFF9F2" fill-opacity="0.54" stroke="#433526" stroke-opacity="0.08" stroke-width="2"/>
  <path d="M426 190H760" stroke="#261F19" stroke-width="7" stroke-linecap="round" opacity="0.88"/>
  <path d="M426 238H648" stroke="#433526" stroke-opacity="0.14" stroke-width="4" stroke-linecap="round"/>

  <rect x="420" y="296" width="286" height="604" rx="32" fill="#FFFDF8" fill-opacity="0.86" stroke="#433526" stroke-opacity="0.08" stroke-width="2"/>
  <path d="M484 372H636" stroke="#261F19" stroke-width="6" stroke-linecap="round" opacity="0.9"/>
  <path d="M484 418H594" stroke="#433526" stroke-opacity="0.15" stroke-width="4" stroke-linecap="round"/>
  <rect x="484" y="474" width="94" height="30" rx="15" fill="#556C84"/>
  <rect x="484" y="520" width="126" height="30" rx="15" fill="#A88B59"/>
  <rect x="484" y="612" width="158" height="188" rx="24" fill="#F8F1E7"/>
  <path d="M520 666H608" stroke="#261F19" stroke-width="5" stroke-linecap="round" opacity="0.84"/>
  <path d="M520 708H586" stroke="#433526" stroke-opacity="0.14" stroke-width="4" stroke-linecap="round"/>
  <path d="M528 758H620" stroke="#556C84" stroke-width="6" stroke-linecap="round"/>

  <rect x="754" y="296" width="426" height="604" rx="32" fill="#FFFDF8" fill-opacity="0.86" stroke="#433526" stroke-opacity="0.08" stroke-width="2"/>
  <path d="M826 372H1056" stroke="#261F19" stroke-width="6" stroke-linecap="round" opacity="0.9"/>
  <path d="M826 418H986" stroke="#433526" stroke-opacity="0.15" stroke-width="4" stroke-linecap="round"/>
  <circle cx="968" cy="628" r="146" stroke="#8B7552" stroke-width="24" opacity="0.92"/>
  <path d="M968 628L1040 556" stroke="#8B7552" stroke-width="12" stroke-linecap="round"/>
  <path d="M968 628V514" stroke="#556C84" stroke-width="10" stroke-linecap="round"/>
  <rect x="838" y="780" width="260" height="62" rx="20" fill="#F8F1E7"/>
  <path d="M884 812H1022" stroke="#261F19" stroke-width="6" stroke-linecap="round" opacity="0.86"/>

  <rect x="420" y="944" width="760" height="98" rx="24" fill="#FFF8EF" fill-opacity="0.8" stroke="#433526" stroke-opacity="0.07" stroke-width="2"/>
  <path d="M486 992H680" stroke="#261F19" stroke-width="6" stroke-linecap="round" opacity="0.86"/>
  <path d="M736 992H900" stroke="#556C84" stroke-width="6" stroke-linecap="round" opacity="0.82"/>
  <path d="M948 992H1102" stroke="#A88B59" stroke-width="6" stroke-linecap="round" opacity="0.84"/>

  <defs>
    <linearGradient id="bg" x1="214" y1="46" x2="1410" y2="1158" gradientUnits="userSpaceOnUse">
      <stop stop-color="#F5EBDD"/>
      <stop offset="1" stop-color="#DFCDBC"/>
    </linearGradient>
    <radialGradient id="haloOne" cx="0" cy="0" r="1" gradientUnits="userSpaceOnUse" gradientTransform="translate(1258 152) rotate(90) scale(282)">
      <stop stop-color="#FFF8EE"/>
      <stop offset="1" stop-color="#FFF8EE" stop-opacity="0"/>
    </radialGradient>
    <radialGradient id="haloTwo" cx="0" cy="0" r="1" gradientUnits="userSpaceOnUse" gradientTransform="translate(318 1050) rotate(90) scale(330)">
      <stop stop-color="#D2BC98"/>
      <stop offset="1" stop-color="#D2BC98" stop-opacity="0"/>
    </radialGradient>
  </defs>
</svg>
